<?xml version="1.0" encoding="UTF-8" standalone="no"?>
<!-- Created with Inkscape (http://www.inkscape.org/) -->

<svg
   version="1.1"
   id="svg1"
   width="776.50238"
   height="544.2403"
   viewBox="0 0 776.50238 544.2403"
   sodipodi:docname="lav2b.svg"
   inkscape:version="1.3 (0e150ed6c4, 2023-07-21)"
   xmlns:inkscape="http://www.inkscape.org/namespaces/inkscape"
   xmlns:sodipodi="http://sodipodi.sourceforge.net/DTD/sodipodi-0.dtd"
   xmlns="http://www.w3.org/2000/svg"
   xmlns:svg="http://www.w3.org/2000/svg">
  <defs
     id="defs1" />
  <sodipodi:namedview
     id="namedview1"
     pagecolor="#ffffff"
     bordercolor="#000000"
     borderopacity="0.25"
     inkscape:showpageshadow="2"
     inkscape:pageopacity="0.0"
     inkscape:pagecheckerboard="0"
     inkscape:deskcolor="#d1d1d1"
     showgrid="false"
     inkscape:zoom="0.81831753"
     inkscape:cx="607.95471"
     inkscape:cy="186.35798"
     inkscape:window-width="1920"
     inkscape:window-height="1011"
     inkscape:window-x="0"
     inkscape:window-y="0"
     inkscape:window-maximized="1"
     inkscape:current-layer="layer2" />
  <g
     inkscape:groupmode="layer"
     id="layer2"
     inkscape:label="Layer 1">
    <path
       style="fill:#000000"
       d="m 672.5,560.8652 c -2.75,-1.01641 -6.125,-2.6601 -7.5,-3.65265 -3.54511,-2.55903 -7.33928,-10.86445 -10.56974,-23.13708 -3.94423,-14.98427 -4.767,-16.69282 -8.38734,-17.41689 -4.37048,-0.87409 -6.64617,-5.22966 -7.30858,-13.98825 -0.30231,-3.99712 -1.73213,-10.79007 -3.1774,-15.09543 C 632.46137,478.35334 614.06448,439 612.84917,439 c -1.32371,0 -15.30316,28.61312 -18.74836,38.37409 -1.71623,4.86245 -4.27794,13.40496 -5.69269,18.98336 -2.81954,11.11749 -2.49648,15.02384 1.60673,19.42812 1.76631,1.8959 3.11481,2.21443 9.37488,2.21443 11.6807,0 17.481,3.004 21.72218,11.25 1.0608,2.0625 2.315,3.75 2.78709,3.75 1.644,0 3.22041,5.74085 2.91176,10.6038 -0.25372,3.99743 -0.67789,4.95323 -2.31076,5.20688 -1.1,0.17088 -3.19947,2.2751 -4.66549,4.67605 -2.3169,3.79449 -3.23234,4.44815 -7,4.99827 -3.4633,0.50569 -34.28293,0.097 -38.33451,-0.50834 -0.55,-0.0822 -5.75558,0.17784 -11.56797,0.5778 -11.36522,0.78206 -18.98994,-0.70984 -22.21014,-4.34576 -3.88974,-4.39192 -7.69187,-22.89419 -7.74896,-37.7087 -0.0191,-4.95 -0.56141,-12.375 -1.20518,-16.5 -2.26007,-14.4814 -1.7992,-18.39373 3.4162,-29 3.79467,-7.717 5.44824,-12.97215 8.81041,-28 2.27645,-10.175 6.14192,-26.96343 8.58994,-37.30763 5.06736,-21.41228 6.04475,-30.53941 4.19696,-39.19237 l -1.28126,-6 -10.89056,-1.33567 c -10.00034,-1.22649 -12.20738,-1.1622 -27,0.78652 -29.39833,3.87282 -40.57561,4.50473 -57.57494,3.25499 -26.73996,-1.96585 -39.13296,-4.01621 -59.50604,-9.84501 C 390.06281,350.36657 377,346.78069 371.5,345.3922 c -5.5,-1.38849 -15.13332,-4.07394 -21.40737,-5.96766 -6.27406,-1.89372 -11.4875,-3.32645 -11.58543,-3.18383 -0.0979,0.14261 -2.24322,4.08429 -4.76731,8.75929 -5.89478,10.91803 -11.99142,19.47778 -24.96496,35.05108 -17.02928,20.44177 -27.39431,37.1244 -31.34425,50.44892 -2.52692,8.5242 -2.20592,18.92398 0.94822,30.72003 5.74591,21.48896 11.58728,35.40528 19.22599,45.80353 3.37964,4.60057 5.11797,5.9755 9.83898,7.78213 3.15375,1.20687 6.97328,2.19431 8.48783,2.19431 3.99391,0 10.12183,3.68429 17.0248,10.23582 L 339,532.97164 v 6.06384 c 0,7.23594 -1.86461,11.32603 -6.18093,13.55808 -4.50623,2.33026 -22.02973,3.97049 -29.52431,2.76352 -4.63233,-0.74601 -6.94562,-0.64914 -9.91809,0.41534 -2.67962,0.95961 -6.86032,1.25737 -13.53928,0.9643 -9.10985,-0.39972 -9.93934,-0.62191 -14.5,-3.88405 C 257.49158,547.24075 251.41183,534.78191 249.54969,520.5 247.58951,505.46612 230.39084,462.39468 221.73016,450.83025 217.55906,445.26067 216,441.3247 216,436.36402 c 0,-4.03532 0.56861,-5.41002 3.84661,-9.29966 6.10629,-7.24569 8.49464,-13.10541 10.09184,-24.75998 l 0.71204,-5.19562 -3.57525,2.86537 c -7.5656,6.06343 -21.68297,22.25708 -28.21814,32.36825 -7.33508,11.3488 -9.75434,24.58768 -7.88656,43.15762 1.24158,12.34419 4.97699,26.14823 8.57251,31.67931 4.86128,7.47823 9.54043,10.74891 18.33711,12.81747 4.36526,1.0265 6.3849,2.27795 10.70646,6.63419 2.92946,2.95296 5.8025,5.36903 6.38454,5.36903 0.58203,0 1.94994,1.4625 3.0398,3.25 2.19523,3.60044 2.80582,12.75 0.85087,12.75 -0.62599,0 -3.12817,1.83432 -5.56039,4.07626 -7.01197,6.46341 -8.6147,6.82631 -31.95507,7.23563 -11.4655,0.20107 -23.63656,-0.007 -27.0468,-0.46207 C 156.52117,556.47673 152.56879,549.2277 150.9366,516 c -1.5669,-31.8984 -5.36001,-54.09515 -12.04745,-70.5 -2.15617,-5.28925 -3.40244,-10.22723 -3.67802,-14.57303 l -0.41682,-6.57302 5.91343,-5.42698 c 7.15773,-6.5689 9.25269,-9.49819 12.7597,-17.8413 2.72299,-6.47793 15.36347,-52.64898 17.95572,-65.58567 1.29136,-6.44458 3.25308,-64.56203 2.09277,-62 -0.24909,0.55 -2.28906,13.6 -4.53327,29 -7.61049,52.22399 -14.85312,79.47183 -28.16409,105.95744 -8.02002,15.95791 -22.40387,36.03595 -33.34295,46.54256 -2.57688,2.475 -7.933795,8.55 -11.904261,13.5 -11.895247,14.82987 -20.417128,22.44848 -29.227766,26.1298 -4.516767,1.88722 -30.042702,8.33702 -33.07054,8.35614 -3.334923,0.0211 -5.643199,-4.14202 -4.841317,-8.73153 0.360785,-2.06492 3.152213,-9.45993 6.203173,-16.43334 4.929017,-11.26598 6.233556,-13.33589 11.706145,-18.57415 6.90687,-6.61113 15.313401,-11.63234 27.158946,-16.22201 16.738718,-6.48558 19.705567,-8.23272 28.06127,-16.52491 13.02674,-12.92773 20.74439,-26.49069 27.31313,-48 5.3108,-17.3902 8.76739,-37.84864 13.60099,-80.5 4.59106,-40.51116 7.85462,-55.83829 15.71228,-73.79174 5.86224,-13.39428 10.68456,-20.30968 22.68508,-32.53134 16.25083,-16.55028 33.65238,-29.08931 60.38453,-43.51126 7.02027,-3.78743 23.91444,-9.60385 32.74272,-11.27285 10.47065,-1.9795 42.31353,-1.42296 81,1.41569 45.95086,3.37169 84.80388,5.05695 103,4.46767 17.48579,-0.56628 21.67234,-2.00412 33,-11.33359 4.125,-3.39736 10.28639,-7.58006 13.69197,-9.2949 3.40559,-1.71484 6.55559,-3.71004 7,-4.43379 0.44442,-0.72375 3.95803,-3.41422 7.80803,-5.97882 6.50183,-4.33107 11.61931,-8.80054 40.14432,-35.061009 C 580.43144,57.53719 588.01036,52.715308 620.5,37.956309 c 35.41462,-16.087723 31.81511,-14.951373 50.72855,-16.014776 11.03098,-0.620215 18.09149,-1.485901 20.73027,-2.541732 3.39442,-1.358179 5.23132,-1.435695 12.10397,-0.510781 4.45623,0.599716 10.20261,2.051732 12.76973,3.226702 9.41501,4.309258 19.85089,7.960174 27.10281,9.481725 4.84525,1.016599 9.72211,2.93341 14,5.502581 6.97925,4.191534 17.41564,13.523076 16.60006,14.842705 -0.26845,0.434366 1.15455,2.89816 3.16222,5.475098 5.30286,6.806449 9.11246,16.308534 10.83011,27.012983 0.4606,2.870429 0.875,3.544834 1.5362,2.5 0.98387,-1.554728 1.25653,0.39154 0.99035,7.069186 -0.0767,1.925 1.22918,11.375 2.90204,21 1.67286,9.625 3.04204,19.37262 3.04262,21.66139 6.5e-4,2.53047 1.37425,7.3696 3.50483,12.34738 4.35918,10.18459 5.35922,15.44609 3.10054,16.31283 -1.76162,0.676 -2.20047,5.19191 -0.60063,6.18067 1.39148,0.85998 0.1395,5.32339 -2.65911,9.47986 -1.28951,1.91518 -2.34456,4.05878 -2.34456,4.76357 0,0.70479 -0.3975,2.06283 -0.88333,3.01787 -3.52064,6.92081 -5.05767,13.38661 -5.09222,21.42133 -0.0339,7.87565 -1.07543,10.01045 -9.05053,18.55011 -6.30108,6.74713 -6.97392,7.86612 -6.97392,11.5982 0,3.67723 -0.57624,4.68298 -5.25,9.16318 -2.8875,2.76791 -7.275,8.08602 -9.75,11.81801 -2.475,3.732 -5.89975,8.70968 -7.61056,11.0615 -1.7108,2.35183 -4.10819,7.27393 -5.32751,10.93801 -1.96485,5.90437 -3.0755,7.45305 -9.76652,13.61841 -4.15225,3.82605 -8.32419,8.21898 -9.27096,9.76207 -0.94677,1.54308 -5.63141,6.63061 -10.41032,11.30561 -4.7789,4.675 -10.11529,10.75 -11.85864,13.5 -8.68979,13.70749 -19.86166,22.59427 -34.01114,27.0545 -5.52714,1.74228 -5.68957,1.8974 -6.30849,6.02468 -0.74163,4.94552 0.082,9.48587 2.63661,14.53383 1.00562,1.98715 5.04731,14.13715 8.98154,27 3.93423,12.86284 7.77352,25.41199 8.53177,27.88699 0.75824,2.475 2.32684,10.125 3.48577,17 2.09973,12.45601 3.4107,16.94418 12.70604,43.5 6.01746,17.19125 7.04419,19.20282 12.16055,23.82515 3.90301,3.52613 4.36307,3.67485 11.3684,3.67485 9.43919,0 16.65677,3.28717 19.97377,9.09685 1.22083,2.13826 2.74953,3.89121 3.39711,3.89545 2.72403,0.0178 5.32258,5.21365 5.32258,10.64256 0,5.0413 -0.14935,5.36514 -2.47432,5.36514 -1.73688,0 -2.93588,0.89257 -4.02299,2.99481 -0.93864,1.81512 -3.52822,3.99791 -6.57408,5.54137 -4.99996,2.53367 -5.17578,2.54816 -34.72701,2.8618 -26.89559,0.28546 -30.17397,0.14065 -34.7016,-1.53278 z"
       id="path1"
       transform="translate(-28.271895,-18.273964)" />
    <g
       id="layer3"
       inkscape:label="01"
       style="fill:#ff9955">
      <path
         style="fill:#ff9955"
         d="m 702,558.9363 c 9.56985,0.1294 13.38938,0.14102 23.67065,0.072 C 738.0311,558.92527 747,553.43064 747,545.94125 c 0,-1.80259 0.4118,-2.05471 2.5,-1.53061 1.375,0.34511 2.5,0.22958 2.5,-0.25673 0,-1.45831 -4.05569,-6.15332 -5.32258,-6.16161 -0.64758,-0.004 -2.18211,-1.76732 -3.41006,-3.91796 -3.32793,-5.82854 -11.42114,-9.56669 -18.82757,-8.69621 -6.34148,0.74532 -9.24052,-0.39676 -14.0698,-5.54281 -4.14595,-4.41791 -4.85708,-5.91641 -10.59302,-22.32155 C 690.48134,470.92764 689.17549,466.45546 687.07126,454 c -1.16146,-6.875 -5.04686,-22.175 -8.63423,-34 -5.90572,-19.46698 -8.34534,-26.82542 -14.58773,-44 -1.78945,-4.92328 -1.87683,-6.2078 -0.83337,-12.25 0.64114,-3.7125 1.57484,-6.75 2.07489,-6.75 0.50005,0 0.90918,-2.71445 0.90918,-6.03212 0,-6.16852 -1.56486,-11.38988 -4.20478,-14.0298 -0.81543,-0.81543 -2.66381,-3.35376 -4.10751,-5.64073 -1.4437,-2.28696 -3.70098,-4.75194 -5.01619,-5.47773 -1.3152,-0.72579 -4.81683,-2.96035 -7.7814,-4.96569 -4.51667,-3.05524 -7.25366,-3.98992 -16.89012,-5.76797 -6.325,-1.16705 -13.83172,-3.25685 -16.6816,-4.64402 -4.86663,-2.3688 -10.52785,-7.56843 -11.5356,-10.59504 -0.33977,-1.02044 -3.82168,-1.42991 -14.36563,-1.68937 -15.52308,-0.38199 -16.9055,-0.91315 -18.03411,-6.92917 -0.43167,-2.30102 -2.34182,-5.21869 -5.58501,-8.53086 -2.71094,-2.76859 -5.75572,-6.64563 -6.76619,-8.61565 -2.12759,-4.14794 -4.84446,-6.7882 -10.76132,-10.45787 -2.52274,-1.56462 -5.06643,-4.26373 -6.30356,-6.6887 C 535.71526,252.52154 530.88836,247 529.28162,247 c -0.55103,0 -2.71147,-1.61237 -4.80099,-3.58304 -2.08952,-1.97067 -6.08996,-4.70665 -8.88988,-6.07996 -10.02595,-4.91757 -15.32853,-7.87731 -18.68314,-10.42838 -1.87418,-1.42525 -6.02448,-3.40859 -9.22288,-4.40742 -3.19839,-0.99882 -6.90034,-2.66956 -8.22653,-3.71274 -3.23962,-2.54829 -6.89362,-14.10635 -5.3635,-16.9654 1.05173,-1.96519 0.97596,-3.68518 -0.87948,-19.96366 -0.78019,-6.84497 -1.30533,-8.18626 -5.04305,-12.88063 -4.74887,-5.96433 -4.93764,-7.35864 -2.18507,-16.13968 1.0929,-3.4865 1.9929,-6.45159 2,-6.58909 0.007,-0.1375 -8.1996,-0.25764 -18.2371,-0.26698 -22.21019,-0.0207 -66.52852,-2.16897 -104.25,-5.05347 -31.58437,-2.41521 -58.84836,-2.82145 -68.5,-1.02066 -8.7805,1.63825 -25.68901,7.4513 -32.74272,11.25677 -26.73215,14.42195 -44.1337,26.96098 -60.38453,43.51126 -12.00052,12.22166 -16.82284,19.13706 -22.68508,32.53134 -7.85766,17.95345 -11.12122,33.28058 -15.71228,73.79174 -6.16002,54.3556 -10.80424,77.12045 -20.04376,98.2498 -7.64512,17.48321 -23.01135,35.47111 -35.18163,41.18407 -3.963564,1.86057 -6.25,3.53872 -6.25,4.58723 0,0.90935 1.79725,3.54267 3.993888,5.85182 2.740175,2.88052 4.192949,5.4433 4.628026,8.16412 l 0.634137,3.96568 4.537953,-4.75136 C 107.93579,447.63263 123,430.59198 123,429.7383 c 0,-0.94504 5.17534,-8.73795 8.12756,-12.2383 0.92775,-1.1 3.94525,-6.51295 6.70555,-12.02878 13.40836,-26.79351 20.68489,-54.27387 28.19344,-106.47468 4.11439,-28.604 6.68993,-42.28315 9.45657,-50.22549 0.88189,-2.5317 1.49597,-7.93623 1.5079,-13.27105 0.0207,-9.23463 1.36628,-16.5 3.05598,-16.5 0.52415,0 0.953,-1.36583 0.953,-3.03518 0,-4.32446 2.13576,-7.30829 12.322,-17.21482 8.06474,-7.84328 11.678,-10.30352 11.678,-7.95145 0,1.0889 -7.86444,9.20145 -8.92003,9.20145 -0.46519,0 -3.37348,2.96099 -6.46288,6.57998 -4.98312,5.83733 -5.61709,7.07884 -5.61709,11 C 184,220.01099 183.62123,222 183.15829,222 181.42171,222 180,230.07205 180,239.93176 c 0,5.71205 -0.5007,11.13528 -1.138,12.3261 -0.74285,1.38802 -1.43687,14.99419 -1.99871,39.18425 -0.47339,20.38184 -1.30264,39.98289 -1.84278,43.55789 -1.45533,9.63232 -14.73211,59.35613 -18.12238,67.87142 -3.66731,9.21111 -5.76474,12.24079 -13.19492,19.05966 -5.49854,5.04616 -5.88387,5.6853 -5.43685,9.01809 0.26461,1.97285 1.92176,7.17887 3.68255,11.56892 6.66455,16.61622 10.42892,38.74894 11.98769,70.48191 1.38461,28.18755 3.97356,35.65342 13.87083,40 5.47484,2.40438 6.53402,2.50424 27.69257,2.61093 13.14466,0.0663 23.61006,-0.32818 26,-0.97997 2.60333,-0.70999 6.04,-3.06048 9.8425,-6.73171 l 5.8425,-5.64082 -1.60285,-3.09957 c -0.88157,-1.70476 -2.61069,-3.62792 -3.8425,-4.27367 -1.23181,-0.64575 -4.28831,-3.2929 -6.79222,-5.88254 -3.62106,-3.74503 -5.6672,-4.97062 -10,-5.98974 -8.8683,-2.08592 -13.53161,-5.3377 -18.40438,-12.8336 -5.99344,-9.21987 -10.38863,-34.64734 -9.13998,-52.87754 1.10451,-16.12582 5.15426,-25.29189 18.06479,-40.88726 C 211.76979,408.80204 238.86449,382 240.25815,382 c 1.09637,0 7.29166,-4.55837 11.18169,-8.22728 1.61691,-1.52499 3.32197,-2.77272 3.78903,-2.77272 1.52722,0 8.28797,-7.37472 12.22396,-13.33406 2.11928,-3.20874 5.48738,-6.86565 7.48467,-8.12648 2.36295,-1.49167 5.27859,-5.08185 8.34696,-10.27805 2.59355,-4.39209 4.71554,-8.41668 4.71554,-8.94352 0,-1.50677 6.86611,-9.13947 8.77779,-9.75782 2.84867,-0.92142 6.31673,-7.05213 8.35834,-14.77559 1.77386,-6.71056 1.84413,-8.74204 0.89187,-25.78448 -1.9798,-35.43258 -3.70773,-52.42899 -6.63358,-65.25 -0.46298,-2.02877 -0.24549,-2.75 0.82929,-2.75 1.42925,0 1.95051,1.76386 4.75092,16.07633 1.91161,9.77 5.44163,66.02754 4.57282,72.87674 -1.35694,10.69747 -5.01211,18.61934 -9.83966,21.32556 l -3.96263,2.22137 3.87742,0.63667 c 17.36776,2.85176 43.89368,8.46422 53.37742,11.2938 6.325,1.88713 16,4.56855 21.5,5.9587 5.5,1.39016 18.56281,4.9774 29.02846,7.97166 19.90054,5.6936 31.81367,7.70383 57.79752,9.75276 15.37755,1.21259 22.25235,0.7991 54.02618,-3.24941 17.69402,-2.25451 17.99077,-2.25941 33.5,-0.55229 8.60631,0.9473 16.90696,1.71466 18.44588,1.70524 l 2.79804,-0.0171 -3.23983,-4.75 c -1.7819,-2.6125 -3.60352,-4.9 -4.04804,-5.08333 C 562.3637,347.98333 562,347.19583 562,346.41667 562,345.6375 561.65985,345 561.24411,345 c -0.41574,0 -1.38108,-1.4625 -2.1452,-3.25 -1.30069,-3.0427 -10.3243,-12.85406 -28.20752,-30.67001 -7.95678,-7.92684 -11.60318,-12.70153 -10.52415,-13.78057 0.65938,-0.65938 9.64835,7.54323 17.59775,16.05829 2.49426,2.67174 8.44746,8.76404 13.22934,13.53846 4.78187,4.77442 9.11853,9.78845 9.63701,11.14229 0.51848,1.35385 3.43352,5.92758 6.47786,10.16384 3.04434,4.23627 5.66568,8.96127 5.82519,10.5 0.15952,1.53874 0.59415,3.2477 0.96585,3.7977 0.3717,0.55 1.00289,3.43123 1.40263,6.40274 0.69496,5.16589 1.81909,8.65127 5.12113,15.87805 0.82448,1.80443 3.83198,5.55319 6.68334,8.33057 2.85135,2.77738 6.53616,7.40772 8.18847,10.28965 4.0577,7.0774 8.48534,13.81737 14.15481,21.54715 5.35403,7.29972 24.82923,47.43882 28.87053,59.50326 1.46495,4.37328 2.91088,11.22179 3.21319,15.21891 0.66453,8.78671 2.93517,13.11357 7.34446,13.99543 3.59366,0.71873 3.9468,1.44744 8.1364,16.78962 3.43449,12.57694 6.63568,20.28154 9.47207,22.79725 1.08682,0.96395 4.86429,2.8465 8.39438,4.18343 5.14077,1.94695 7.61266,2.32675 12.41835,1.90806 3.3,-0.28751 9.825,-0.47103 14.5,-0.40782 z"
         id="path2"
         transform="translate(-28.271895,-18.273964)" />
      <path
         style="fill:#ff9955"
         d="m 575,554.72153 c 3.025,0.10368 12.55978,0.3195 21.18839,0.47961 l 15.68839,0.29109 3.06609,-2.93749 c 1.68634,-1.61563 3.60447,-4.42638 4.26249,-6.24612 C 619.95586,544.23315 621.07232,543 622.20089,543 623.1904,543 624,542.57117 624,542.04705 624,540.39804 621.71613,536 620.85981,536 c -0.45054,0 -1.6871,-1.6875 -2.7479,-3.75 -4.12177,-8.01383 -11.46674,-11.99121 -20.04308,-10.85352 -7.01078,0.93001 -10.55518,-0.70398 -13.1488,-6.06168 -2.8825,-5.95444 -2.80266,-10.88688 0.3615,-22.3348 4.78699,-17.31934 8.46375,-26.70749 17.07009,-43.58641 l 8.52022,-16.71001 -3.40965,-5.10179 c -1.8753,-2.80598 -5.61178,-8.3342 -8.30327,-12.28492 -2.69149,-3.95073 -5.19596,-7.77573 -5.56549,-8.5 -2.55568,-5.00915 -7.8691,-11.79391 -9.27887,-11.84829 -0.44801,-0.0173 -1.57091,-1.07314 -2.49534,-2.34634 -4.81517,-6.63188 -7.79653,-14.27527 -9.89662,-25.37224 L 570.73979,361 h -5.73338 -5.73338 l 0.97515,5.25 c 1.65165,8.89208 0.23752,21.87514 -4.60193,42.25 -2.48209,10.45 -6.37544,27.325 -8.65189,37.5 -3.31521,14.81794 -5.05713,20.39069 -8.75205,27.9995 -4.95377,10.20112 -5.15385,11.54226 -3.43146,23.0005 0.62007,4.125 1.14129,11.4638 1.15827,16.30845 0.06,17.10618 4.21903,35.27436 8.75546,38.24674 5.41592,3.54865 9.52382,4.4261 17.27542,3.69002 4.125,-0.3917 9.975,-0.62736 13,-0.52368 z"
         id="path3"
         transform="translate(-28.271895,-18.273964)" />
      <path
         style="fill:#ff9955"
         d="m 290.54095,552.33135 c 4.21049,-1.43466 6.02341,-1.50968 12.92814,-0.53494 14.19853,2.00438 28.03782,-1.00841 31.007,-6.75018 2.9547,-5.71375 2.09429,-8.53325 -4.51959,-14.81041 C 323.05353,523.68429 316.92561,520 312.9317,520 c -1.51455,0 -5.33408,-0.98744 -8.48783,-2.19431 -4.72101,-1.80663 -6.45934,-3.18156 -9.83898,-7.78213 -7.70504,-10.48854 -14.10255,-25.92351 -19.69763,-47.52356 -2.96002,-11.42728 -3.17112,-26.128 -0.50261,-35 4.03262,-13.40722 14.35897,-30.01996 31.35865,-50.44892 5.74432,-6.90309 12.4124,-15.29404 14.81796,-18.64654 4.2819,-5.96747 13.39659,-21.28485 13.4113,-22.53791 0.0105,-0.89499 -2.67656,-1.57036 -17.99256,-4.52221 -22.86133,-4.40607 -24.18834,-4.31638 -25.51518,1.72468 -0.35405,1.61199 -0.95022,2.9309 -1.32483,2.9309 -0.3746,0 -2.23393,2.96629 -4.13185,6.59175 -2.45633,4.69218 -4.51541,7.2045 -7.14524,8.71804 -2.10813,1.21328 -5.55984,4.88518 -8.0387,8.55148 -4.47942,6.62519 -8.00786,10.36495 -13.5325,14.34299 -5.19519,3.7408 -17.64678,13.37991 -19.90877,15.4119 -1.64823,1.48064 -2.24779,3.59607 -2.80126,9.88384 -1.30661,14.84373 -4.03074,22.58532 -10.75506,30.56436 -2.11564,2.51039 -3.84661,5.34524 -3.84661,6.29966 0,2.17084 2.46942,7.11223 5.73016,11.46623 8.66616,11.57175 25.87383,54.67317 27.81472,69.66975 1.89765,14.66246 7.52149,26.11238 15.48016,31.51701 7.79008,5.29013 14.02411,6.20778 22.51591,3.31434 z"
         id="path4"
         transform="translate(-28.271895,-18.273964)" />
      <path
         style="fill:#ff9955"
         d="m 757.38108,219.11172 c 1.32823,-1.24781 2.6353,-3.47091 2.90459,-4.94023 0.2693,-1.46932 1.21519,-5.28095 2.10198,-8.47028 2.51917,-9.06017 2.46527,-9.18792 -4.63765,-10.99049 -9.91798,-2.51697 -11.77502,-2.6133 -19.73658,-1.02378 -4.13238,0.82502 -11.11342,1.79547 -15.51342,2.15655 l -8,0.65651 -0.24986,6 c -0.20652,4.95912 0.22718,6.86585 2.5,10.99105 4.26416,7.73954 6.80697,8.61067 23.98292,8.21625 13.18102,-0.30268 14.41156,-0.49453 16.64802,-2.59558 z"
         id="path8"
         transform="translate(-28.271895,-18.273964)" />
      <path
         id="path12"
         style="fill:#ff9955"
         d="m 713.60979,70.387245 c -1.48969,0.02511 -2.78642,0.488264 -5.16797,1.41211 -4.26879,1.655931 -5.48668,2.811477 -8.94141,8.470703 -5.54275,9.079648 -10.27462,14.730469 -12.33398,14.730469 -1.86445,0 -8.57287,8.308853 -10.23243,12.673823 -1.08737,2.86002 -0.16024,30.45079 1.05274,31.32618 2.23691,1.61433 7.09771,9.85959 8.56836,14.53515 1.46463,4.65644 2.39732,5.87885 6.33203,8.30469 2.53754,1.56446 6.18828,4.60518 8.11328,6.75586 l 3.5,3.91016 0.73633,-3.26954 c 0.40568,-1.79762 1.64318,-5.04335 2.75,-7.21289 1.10682,-2.16954 2.01367,-4.56647 2.01367,-5.32812 0,-0.76164 1.80219,-4.17448 4.00586,-7.58399 3.90732,-6.04537 4.09329,-6.18402 7.5,-5.54492 l 3.49414,0.65625 v -3.93164 c 0,-2.94669 -0.62597,-4.47602 -2.5,-6.10547 -2.54773,-2.21522 -3.36731,-5.18554 -1.42969,-5.18554 2.7859,0 6.92969,6.67459 6.92969,11.16406 0,2.04618 0.87909,5.21344 1.95508,7.03711 3.46321,5.8697 5.97273,6.64828 23.88476,7.41406 10.50887,0.44928 16.16016,0.34398 16.16016,-0.30273 0,-1.849 -2.89564,-10.62861 -3.70117,-11.22266 -2.56073,-1.88842 -4.5602,-9.29657 -5.04688,-18.68945 -0.50562,-9.7584 -0.44503,-10.15371 1.83399,-11.75 2.75091,-1.92682 7.74313,-2.14148 11.36719,-0.49024 3.53255,1.60954 3.47882,6.57794 -0.11719,10.85157 -2.30945,2.74462 -3.18643,3.11678 -6.58203,2.79296 l -3.91602,-0.37304 0.66211,4.41406 c 0.76069,5.07266 2.29104,8.88721 4.58789,11.42773 0.8818,0.97535 2.215,4.35036 2.96094,7.5 1.01111,4.26929 1.45472,5.09035 1.74805,3.22657 0.21641,-1.375 0.81622,-3.01392 1.33203,-3.64258 1.86376,-2.2715 5.03922,-15.05015 5.92773,-23.85742 0.49937,-4.95 1.19075,-11.76091 1.53711,-15.13477 0.58279,-5.67676 0.3581,-6.68363 -3.01367,-13.499999 -3.77264,-7.626788 -5.38208,-9.969132 -11.98438,-17.445313 -3.71738,-4.209425 -4.16394,-4.419922 -9.35547,-4.419921 -2.99851,0 -8.1989,0.711955 -11.55664,1.582031 -6.42969,1.666102 -12.99664,1.287753 -17.66992,-1.015625 -1.38224,-0.681286 -5.46567,-2.013048 -9.07226,-2.960938 -3.1597,-0.830435 -4.84235,-1.243861 -6.33203,-1.21875 z m 0.88671,39.683595 c 0.4331,0.008 0.7871,0.0364 1.0293,0.084 2.89027,0.56764 5.47239,5.03317 6.13281,10.60938 0.66809,5.64097 0.4367,5.85089 -4.71679,4.28711 -7.46587,-2.26545 -11.94141,-6.26189 -11.94141,-10.66406 0,-3.08934 0.23528,-3.29992 4.38281,-3.92188 1.80782,-0.2711 3.81399,-0.41846 5.11328,-0.39453 z"
         transform="translate(-28.271895,-18.273964)" />
    </g>
    <g
       id="layer4"
       inkscape:label="02"
       style="fill:#502d16">
      <path
         style="fill:#502d16"
         d="m 47.5,495.97554 c 6.6,-1.66049 14.25,-4.12056 17,-5.46682 6.022727,-2.94842 13.622148,-9.13133 20.017847,-16.28659 4.818454,-5.39069 5.006955,-6.02962 4.564143,-15.47011 C 89.036895,457.79064 87.2,455.09308 85,452.75745 c -2.2,-2.33563 -4,-5.03654 -4,-6.00202 0,-2.59807 -1.29665,-2.25408 -12.817203,3.40025 -8.02704,3.93971 -12.208561,6.77432 -17.729443,12.01862 -6.708077,6.37202 -7.62687,7.77363 -12.844578,19.59432 -6.072467,13.75714 -6.204158,14.236 -4.408776,16.03138 1.530737,1.53074 0.380917,1.67744 14.3,-1.82446 z"
         id="path5"
         transform="translate(-28.271895,-18.273964)" />
      <path
         id="path6"
         style="display:inline;fill:#502d16"
         d="m 673.3977,3.726562 c -2.07808,0 -4.97898,0.455433 -6.44726,1.013672 -1.46828,0.558239 -10.3864,1.412667 -19.81641,1.898438 -12.39019,0.638258 -17.97658,1.325876 -20.14453,2.478515 -1.65,0.87726 -13.12501,6.127526 -25.5,11.667969 -37.04377,16.584982 -43.8461,20.813454 -65.35547,40.615235 -5.87029,5.404261 -15.73062,14.46239 -21.91015,20.128906 -6.17954,5.666519 -14.72188,12.603469 -18.98438,15.416019 -4.2625,2.81254 -7.75,5.483084 -7.75,5.933594 0,0.45052 -2.8125,2.2339 -6.25,3.96484 -3.4375,1.73095 -9.625,5.93651 -13.75,9.34375 -6.75806,5.58216 -18.27845,11.53907 -22.31445,11.53907 -0.7258,0 -2.25449,3.08193 -3.48828,7.03125 -2.44483,7.82575 -2.71064,10.5334 -1.13086,11.50976 0.58633,0.36237 2.38633,2.48138 4,4.70899 2.29154,3.16339 2.93359,5.1185 2.93359,8.93164 0,2.68513 0.68138,6.5151 1.51563,8.51172 1.09209,2.61377 1.4421,6.45559 1.25,13.71875 -0.24321,9.19526 -0.0603,10.37531 2.0625,13.35156 2.70386,3.79088 6.09209,5.70963 11.58593,6.55859 2.38509,0.36856 5.12078,1.76244 7,3.56641 1.69665,1.6287 5.11094,3.73995 7.58594,4.6914 2.475,0.95145 5.175,2.26225 6,2.91211 0.825,0.64987 4.47355,2.78491 8.10742,4.7461 3.63387,1.96119 7.76064,4.62294 9.17188,5.91406 1.41124,1.29113 3.84449,3.3054 5.40625,4.47656 1.56176,1.17115 3.88549,4.22313 5.16406,6.78321 1.27857,2.56008 3.52177,5.40504 4.98633,6.32226 6.32448,3.96089 10.37806,7.76273 12.30859,11.54688 1.13762,2.22992 4.19609,6.12691 6.79688,8.66015 2.60078,2.53325 5.0579,5.94541 5.46093,7.58203 0.40303,1.63663 1.38707,3.98907 2.1875,5.22657 1.37509,2.12595 2.11205,2.25 13.36719,2.25 13.61817,0 16.14436,0.67092 18.67969,4.96289 1.00143,1.6953 3.51697,4.25685 5.58984,5.69336 3.63393,2.51831 19.75765,7.31462 24.65625,7.33398 3.61501,0.0143 9.84272,2.1053 11.85547,3.98047 0.98605,0.91864 3.92155,2.91741 6.52539,4.44336 3.39047,1.98695 6.32208,5.07896 10.32813,10.89453 5.2566,7.63099 5.62762,8.56448 6.15039,15.47656 0.54233,7.17094 0.61763,7.34009 2.96875,6.75 1.32639,-0.3329 5.80962,-2.50176 9.96289,-4.82031 7.94717,-4.43651 15.87582,-12.40646 22.09765,-22.21484 1.74443,-2.75 7.08483,-8.82501 11.86719,-13.5 4.78237,-4.675 9.41233,-9.67943 10.28906,-11.1211 0.87674,-1.44166 5.04399,-5.8443 9.26172,-9.7832 6.83212,-6.38044 7.90819,-7.89447 9.86524,-13.87891 1.20817,-3.69442 2.98455,-7.61679 3.94726,-8.71679 0.96271,-1.1 2.99768,-4.02501 4.52149,-6.5 1.52382,-2.475 3.88827,-5.625 5.2539,-7 1.36563,-1.375 2.90187,-3.69168 3.41407,-5.14649 0.5122,-1.45482 3.11219,-4.48349 5.77929,-6.73242 3.62101,-3.05329 4.71669,-4.59651 4.32618,-6.08984 -0.97541,-3.72994 0.66968,-6.79341 7.66796,-14.28711 7.98783,-8.55328 9.02916,-10.68908 9.05079,-18.56055 0.009,-3.12669 0.71508,-8.3836 1.57031,-11.68359 0.85522,-3.3 1.80998,-7.35001 2.12109,-9 0.31111,-1.65 1.89977,-4.69809 3.53125,-6.77344 2.26146,-2.87675 2.81194,-4.38896 2.31641,-6.36328 -0.35748,-1.42433 -0.15338,-4.98086 0.45312,-7.90235 1.03054,-4.96408 0.90218,-5.78038 -1.95312,-12.49023 -1.722,-4.04665 -3.05469,-8.9482 -3.05469,-11.23047 0,-7.66915 -9.86349,-62.137978 -12.55273,-69.320316 C 747.5025,35.962128 729.40285,19.900952 712.42505,16.310547 704.77401,14.692531 691.90986,10.319376 689.90356,8.654297 687.77646,6.888956 677.18235,3.726562 673.3977,3.726562 Z m 11.83399,45.990235 c 4.43591,-0.133068 9.78175,0.930529 16.375,3.107422 l 9.38281,3.097656 6.64258,-1.597656 c 3.6537,-0.878786 9.63516,-1.597657 13.29297,-1.597656 5.55644,0 7.02595,0.370156 8.92578,2.25 5.20356,5.148811 10.94199,13.068011 14.7793,20.396484 4.53199,8.655199 4.46428,7.529289 1.92382,32.353523 -0.93213,9.10829 -4.25797,22.59196 -6.00195,24.33593 -0.58489,0.58489 -1.0625,1.85179 -1.0625,2.81446 0,0.96267 -0.7875,2.19248 -1.75,2.73437 -1.64745,0.92752 -1.61834,1.3564 0.5,7.30078 1.23761,3.47294 2.25011,7.74636 2.25,9.49805 -2.2e-4,3.38112 -1.5895,8.42784 -2.92773,9.29492 -0.4417,0.28619 -1.81816,2.54649 -3.0586,5.02149 -1.24044,2.47499 -2.71493,5.07233 -3.27539,5.77148 -0.56045,0.69915 -1.16309,2.94915 -1.33984,5 -0.17675,2.05085 -1.52668,8.14655 -3,13.54688 -1.97592,7.24254 -3.27069,10.20663 -4.93164,11.29492 -1.35943,0.89074 -6.7523,1.84685 -13.60938,2.41406 -14.33765,1.18601 -15.29515,1.15487 -21.35742,-0.68555 -9.2025,-2.79374 -13.5,-9.62718 -13.5,-21.46875 0,-3.91524 -0.43033,-6.87304 -1,-6.87304 -0.55,0 -1.00247,-0.5625 -1.00586,-1.25 -0.003,-0.6875 -0.70606,-2.59172 -1.56055,-4.23047 -0.85449,-1.63875 -2.03567,-5.23876 -2.625,-8 -1.43273,-6.71307 -5.38929,-12.2126 -12.12109,-16.84766 -6.14579,-4.23157 -7.75699,-6.25384 -9.69336,-12.17187 -0.71984,-2.2 -3.13747,-6.47501 -5.37305,-9.5 l -4.06445,-5.5 -0.375,-15.11328 c -0.32046,-12.925544 -0.12167,-15.603194 1.375,-18.500004 2.63721,-5.104368 9.6492,-13.021761 11.05469,-12.482427 1.2936,0.496402 7.74462,-7.377166 10.98242,-13.404296 3.89123,-7.243478 8.75525,-10.787986 16.14844,-11.009766 z" />
    </g>
    <g
       id="layer5"
       inkscape:label="03">
      <path
         style="fill:#ffccaa"
         d="m 770.80467,182.43989 c 4.71293,-7.93115 4.87104,-8.91529 2.56091,-15.93989 -0.90438,-2.75 -1.79248,-5.5625 -1.97357,-6.25 -0.57107,-2.16814 -1.84181,-1.37631 -4.37872,2.7285 -1.35237,2.18817 -3.03123,4.19814 -3.7308,4.46659 -0.69957,0.26845 -1.99818,2.30313 -2.8858,4.5215 -0.88762,2.21838 -1.94665,4.03341 -2.3534,4.03341 -0.40675,0 -1.53928,1.77349 -2.51673,3.9411 -0.97745,2.1676 -2.3958,4.17848 -3.15187,4.46861 -0.75608,0.29014 -1.37469,1.59906 -1.37469,2.90872 0,2.13258 0.70478,2.52975 6.75,3.80388 7.72362,1.62789 6.40803,2.50287 13.05467,-8.68242 z"
         id="path10"
         transform="translate(-28.271895,-18.273964)" />
      <path
         style="fill:#ffccaa"
         d="m 733.36654,190.88274 c 4.3266,-0.56443 9.3891,-1.75231 11.25,-2.63971 3.84636,-1.83419 4.107,-3.30669 2.23516,-12.62726 -0.93686,-4.66497 -1.6622,-5.98353 -3.93929,-7.16107 C 739.65205,166.76871 737,163.31442 737,160.75381 737,158.23723 724.66315,146 722.12607,146 c -3.05683,0 -5.76074,3.50414 -8.80577,11.41188 -1.50118,3.89847 -3.34729,8.07493 -4.10246,9.28103 -0.7593,1.21269 -1.45011,5.27098 -1.54545,9.07904 -0.1358,5.42442 0.33639,7.97284 2.2245,12.00574 l 2.39689,5.11963 6.60311,-0.49416 c 3.63171,-0.27179 10.14305,-0.95598 14.46965,-1.52042 z"
         id="path9"
         transform="translate(-28.271895,-18.273964)" />
    </g>
    <path
       style="fill:#aa4400"
       d="m 757.39445,170.2224 c 0.7795,-1.49732 2.60949,-4.0724 4.06666,-5.7224 5.3767,-6.08823 5.29566,-6.5 -1.27924,-6.5 -3.23867,0 -8.73692,-0.29772 -12.21834,-0.6616 l -6.32986,-0.6616 2.13142,2.9933 c 2.58011,3.62343 5.70961,11.44805 6.65402,16.63691 l 0.69291,3.80702 2.43258,-3.58461 c 1.33792,-1.97154 3.07035,-4.80969 3.84985,-6.30702 z"
       id="path11"
       transform="translate(-28.271895,-18.273964)" />
    <g
       id="layer6"
       inkscape:label="04">
      <path
         id="path16"
         style="fill:#ffff00"
         d="m 769.71525,114.16459 c -3.03811,-0.0561 -5.71484,1.71907 -5.71484,4.11328 0,4.83306 5.63941,6.50319 8.44336,2.5 2.31428,-3.3041 1.94125,-5.64216 -1.01758,-6.38477 -0.57259,-0.14371 -1.14832,-0.21813 -1.71094,-0.22851 z m -0.84765,2.0957 c 0.21488,-0.003 0.42773,0.0248 0.63281,0.0898 0.55,0.17439 1,0.94711 1,1.71875 0,1.7694 -3.07071,2.4355 -4.03516,0.875 -0.68028,-1.10074 0.8982,-2.65961 2.40235,-2.6836 z"
         transform="translate(-28.271895,-18.273964)" />
      <path
         id="path14"
         style="display:inline;fill:#ffff00"
         d="m 713.54143,113.07279 c -0.84987,-0.0181 -1.90753,0.18588 -3.29102,0.55664 -2.9611,0.79354 -2.84029,2.11108 0.43359,4.72657 3.70911,2.96317 8.31641,4.71602 8.31641,3.16406 0,-0.26387 -0.72466,-2.28887 -1.60937,-4.5 -1.11653,-2.79047 -1.97991,-3.90742 -3.84961,-3.94727 z m -1.31836,1.06446 c 0.15567,-0.002 0.32812,0.0147 0.51562,0.0508 2.60673,0.50201 2.89663,3.8125 0.33399,3.8125 -1.43109,0 -2.07227,-0.64313 -2.07227,-2.07422 0,-1.20749 0.38204,-1.7786 1.22266,-1.78906 z"
         transform="translate(-28.271895,-18.273964)" />
    </g>
  </g>
</svg>
